# xmcd
#
# Track frame offsets: 
#        150
#        10550
#        23122
#        32975
#        42547
#        52630
#        62805
#        73035
#        81465
#        90027
#        101770
#        117832
#        131522
#        144632
#        155332
#        167407
#        179162
#        190287
#        200685
#        211205
#        220795
#        233117
#        247077
#        258972
#        270717
#
# Disc length: 3779 seconds
#
# Revision: 0
# Processed by: cddbd v1.5.2PL0 Copyright (c) Steve Scherf et al.
# Submitted via: ExactAudioCopy v1.0b1
#
DISCID=630ec119
DTITLE=Various Artist - West Coast Guitar Killers - Volume 2
DYEAR=1900
DGENRE=Blues
TTITLE0=Tell Me Tell Me - Johnny "Guitar" Watson with The Floyd Dixon 
TTITLE0=Band
TTITLE1=She's My Baby - Flash Terry and Orchestra
TTITLE2=Poison Ivy - Two Crows and The Diggers feat. Lloyd Rowe
TTITLE3=Tell The Truth - Blues Slim and His Band
TTITLE4=You Upset Me Baby - Willie Snow and The Diggers feat. Lloyd Rowe
TTITLE5=Reconsider Baby - The Diggers feat. Lloyd Rowe
TTITLE6=Git To Gittin' - Pee Wee Crayton and His Band
TTITLE7=You Don't Know What You're Doing - R.S. Rankin
TTITLE8=Looking Back - Johnny "Guitar" Watson
TTITLE9=The Eagle Is Back - Johnny "Guitar" Watson
TTITLE10=Slow Jam - Bud Spudd and The Sprouts
TTITLE11=Take A Chance - Jimmy McCracklin feat. Lafayette Thomas
TTITLE12=Beer Tavern Girl - Jimmy McCracklin feat. Lafayette Thomas
TTITLE13=Rock It - The Rocking Bros. (Jason and Wilbur)
TTITLE14=Strangest Blues - Jimmy Wilson Band feat. Lafayette Thomas
TTITLE15=Good Woman Blues - B. Brown and His McVouts
TTITLE16=I Believe In A Woman - Sly Williams
TTITLE17=Boot Hill - Sly Williams
TTITLE18=After Awhile - Jessie Allen and Band
TTITLE19=Knocked Out - Jimmy Liggins and His Drops Of Joy Orchestra
TTITLE20=The Search Is Over - Cal Green with The Midnighters
TTITLE21=I Can Hear My Baby Calling -  Cal Green with The Midnighters
TTITLE22=Rat Now - Johnny "Guitar" Watson
TTITLE23=Baby Don't Leave - Johnny "Guitar" Watson
TTITLE24=The Boogie Twist - Cal Valentine and The Texas Rockers
EXTD=
EXTT0=
EXTT1=
EXTT2=
EXTT3=
EXTT4=
EXTT5=
EXTT6=
EXTT7=
EXTT8=
EXTT9=
EXTT10=
EXTT11=
EXTT12=
EXTT13=
EXTT14=
EXTT15=
EXTT16=
EXTT17=
EXTT18=
EXTT19=
EXTT20=
EXTT21=
EXTT22=
EXTT23=
EXTT24=
PLAYORDER=
